<svg width="24" height="24" viewBox="0 0 24 24" fill="none" xmlns="http://www.w3.org/2000/svg">
<path d="M21.558 3.59188L20.408 2.44188C20.2694 2.30159 20.1044 2.19021 19.9224 2.11419C19.7404 2.03817 19.5452 1.99902 19.348 1.99902C19.1508 1.99902 18.9556 2.03817 18.7736 2.11419C18.5916 2.19021 18.4266 2.30159 18.288 2.44188L13 7.73088V10.9999H16.27L21.558 5.71188C21.6983 5.5733 21.8097 5.40824 21.8857 5.22628C21.9617 5.04432 22.0009 4.84908 22.0009 4.65188C22.0009 4.45468 21.9617 4.25945 21.8857 4.07749C21.8097 3.89553 21.6983 3.73047 21.558 3.59188ZM15.579 9.44988H14.549V8.41988L18 4.97288L19.03 6.00288L15.579 9.44988Z" fill="#9C9FEB"/>
<path d="M19 19H5V5H11V3H5C4.47005 3.00158 3.96227 3.2128 3.58753 3.58753C3.2128 3.96227 3.00158 4.47005 3 5V19C3.00158 19.5299 3.2128 20.0377 3.58753 20.4125C3.96227 20.7872 4.47005 20.9984 5 21H19C19.5299 20.9984 20.0377 20.7872 20.4125 20.4125C20.7872 20.0377 20.9984 19.5299 21 19V13H19V19Z" fill="#9C9FEB"/>
<path d="M19 19H5V5H11V3H5C4.47005 3.00158 3.96227 3.2128 3.58753 3.58753C3.2128 3.96227 3.00158 4.47005 3 5V19C3.00158 19.5299 3.2128 20.0377 3.58753 20.4125C3.96227 20.7872 4.47005 20.9984 5 21H19C19.5299 20.9984 20.0377 20.7872 20.4125 20.4125C20.7872 20.0377 20.9984 19.5299 21 19V13H19V19Z" stroke="#9C9FEB"/>
</svg>
