<svg width="24" height="24" viewBox="0 0 24 24" fill="none" xmlns="http://www.w3.org/2000/svg">
<g clip-path="url(#clip0_1271_11521)">
<path d="M16.8302 20.0764L13.1054 17.5933C12.9388 17.4834 12.7156 17.5196 12.5924 17.6766L11.5078 19.0709C11.1563 19.5289 10.522 19.6597 10.018 19.3779L9.81751 19.2678C9.0941 18.8731 8.19349 18.3822 6.4057 16.5945C4.61791 14.8068 4.12656 13.9062 3.73228 13.1824L3.62178 12.9819C3.34004 12.4781 3.47079 11.8439 3.92882 11.4926L5.32276 10.4077C5.47997 10.2845 5.51623 10.0613 5.40603 9.89466L2.92323 6.16968C2.81031 6.00065 2.58468 5.9498 2.41016 6.05404L0.851671 6.98854C0.51731 7.18368 0.271396 7.50059 0.165381 7.87292C-0.346477 9.73681 0.0841 13.0005 5.04137 17.9579C9.99863 22.9154 13.2617 23.3468 15.1272 22.8345C15.4997 22.7284 15.8165 22.4823 16.0116 22.1478L16.9458 20.5894C17.0503 20.415 16.9994 20.1893 16.8302 20.0764Z" fill="#ffffff"/>
<path fill-rule="evenodd" clip-rule="evenodd" d="M23.7732 1.00001C23.8335 0.999348 23.8916 1.02266 23.9342 1.06467C23.9769 1.10668 24.0006 1.16387 23.9999 1.22329V13.7816C23.9981 13.9034 23.8968 14.0009 23.7732 14H6.50034C6.49998 13.7562 6.49989 13.2745 6.4998 12.7869C6.4997 12.2748 6.49961 11.7562 6.49919 11.5L7.29004 10.6182C7.79391 10.2295 7.6062 9.1064 7.25292 8.58073L6.27345 7.13377V1.22329C6.27278 1.16387 6.29645 1.10668 6.3391 1.06467C6.38176 1.02266 6.43983 0.999348 6.50016 1.00001H23.7732ZM8.81786 3.83723C9.08653 3.46606 9.60942 3.38378 9.97596 3.6771L15.1584 7.8142L20.3428 3.67683C20.7098 3.38393 21.2325 3.46735 21.5003 3.83882C21.7576 4.19575 21.6972 4.70483 21.3461 4.98513L16.0955 9.17481C15.828 9.38535 15.4991 9.50102 15.1584 9.49994C14.8177 9.50102 14.4888 9.38536 14.2212 9.17481L14.2185 9.1727L8.96983 4.98445C8.61902 4.70327 8.55982 4.19382 8.81786 3.83723ZM15.1584 9.49994L15.1608 9.49993H15.156L15.1584 9.49994Z" fill="#ffffff"/>
</g>
<defs>
<clipPath id="clip0_1271_11521">
<rect width="24" height="24" fill="white"/>
</clipPath>
</defs>
</svg>
