<svg width="24" height="24" viewBox="0 0 24 24" fill="none" xmlns="http://www.w3.org/2000/svg">
<path d="M3 19C2.45 19 1.97933 18.8043 1.588 18.413C1.196 18.021 1 17.55 1 17V7C1 6.45 1.196 5.97933 1.588 5.588C1.97933 5.196 2.45 5 3 5H13C13.55 5 14.021 5.196 14.413 5.588C14.8043 5.97933 15 6.45 15 7V17C15 17.55 14.8043 18.021 14.413 18.413C14.021 18.8043 13.55 19 13 19H3ZM18 11C17.7167 11 17.4793 10.904 17.288 10.712C17.096 10.5207 17 10.2833 17 10V6C17 5.71667 17.096 5.479 17.288 5.287C17.4793 5.09567 17.7167 5 18 5H22C22.2833 5 22.5207 5.09567 22.712 5.287C22.904 5.479 23 5.71667 23 6V10C23 10.2833 22.904 10.5207 22.712 10.712C22.5207 10.904 22.2833 11 22 11H18ZM4 15H12L9.375 11.5L7.5 14L6.125 12.175L4 15ZM18 19C17.7167 19 17.4793 18.904 17.288 18.712C17.096 18.5207 17 18.2833 17 18V14C17 13.7167 17.096 13.479 17.288 13.287C17.4793 13.0957 17.7167 13 18 13H22C22.2833 13 22.5207 13.0957 22.712 13.287C22.904 13.479 23 13.7167 23 14V18C23 18.2833 22.904 18.5207 22.712 18.712C22.5207 18.904 22.2833 19 22 19H18Z" fill="#ffffff"/>
</svg>
