<svg width="55" height="55" viewBox="0 0 55 55" fill="none" xmlns="http://www.w3.org/2000/svg">
<rect width="55" height="55" rx="9" fill="#E3E5F5"/>
<g clip-path="url(#clip0_918_20493)">
<path d="M36.4603 14.3267L18.9418 21.3335H14.1875C12.4308 21.3335 11 22.7644 11 24.521V28.4169C11 30.0857 12.3104 31.2502 14.1875 31.2502H15.3917L16.678 40.2545C16.7531 40.7787 17.2008 41.1669 17.7292 41.1669H21.9792C22.2823 41.1669 22.5699 41.0379 22.7725 40.8127C22.9737 40.5874 23.07 40.2871 23.036 39.9854L22.2002 32.5535L36.4589 38.257C36.5878 38.308 36.721 38.3335 36.8542 38.3335C37.0624 38.3335 37.2721 38.2712 37.4506 38.1508C37.7424 37.9524 37.9167 37.6238 37.9167 37.271V15.3127C37.9167 14.9599 37.7424 14.6313 37.4506 14.4329C37.1573 14.2346 36.7862 14.1949 36.4603 14.3267ZM13.125 28.4169V24.521C13.125 23.9359 13.6024 23.4585 14.1875 23.4585H18.0833V29.1252H14.1875C13.703 29.1252 13.125 29.0019 13.125 28.4169ZM20.7906 39.0419H18.65L17.5379 31.2502H18.9418L19.9633 31.6582L20.7906 39.0419ZM35.7917 35.7028L21.3757 29.9355C21.3148 29.9072 21.2567 29.8774 21.1901 29.8604L20.2083 29.468V23.1157L35.7917 16.8824V35.7028Z" fill="#918FBF"/>
<path d="M41.0605 23.2259L44.6021 20.3926C45.0597 20.0256 45.1348 19.357 44.7679 18.898C44.3996 18.4418 43.7323 18.3681 43.2733 18.7322L39.7316 21.5656C39.2741 21.9325 39.199 22.6011 39.5659 23.0601C39.7756 23.3208 40.0844 23.4582 40.3961 23.4582C40.6298 23.4582 40.8636 23.3817 41.0605 23.2259Z" fill="#918FBF"/>
<path d="M41.0605 30.7742C40.6043 30.4101 39.9356 30.4838 39.5659 30.94C39.199 31.3976 39.2741 32.0676 39.7316 32.4346L43.2733 35.2679C43.4702 35.4237 43.704 35.5002 43.9377 35.5002C44.2494 35.5002 44.5582 35.3628 44.7679 35.1021C45.1348 34.6446 45.0597 33.9745 44.6021 33.6076L41.0605 30.7742Z" fill="#918FBF"/>
<path d="M43.9377 25.9375H40.396C39.8095 25.9375 39.3335 26.4135 39.3335 27C39.3335 27.5865 39.8095 28.0625 40.396 28.0625H43.9377C44.5242 28.0625 45.0002 27.5865 45.0002 27C45.0002 26.4135 44.5242 25.9375 43.9377 25.9375Z" fill="#918FBF"/>
</g>
<defs>
<clipPath id="clip0_918_20493">
<rect width="34" height="34" fill="white" transform="translate(11 10)"/>
</clipPath>
</defs>
</svg>
