<svg width="1073" height="431" viewBox="0 0 1073 431" fill="none" xmlns="http://www.w3.org/2000/svg">
<path d="M111.4 184.77L199.73 31.77H23.0596L111.4 184.77Z" fill="white"/>
<path d="M296.609 270.66L384.949 423.66H208.279L296.609 270.66Z" fill="white"/>
<path d="M143.16 423.66H6.26953L259.25 31.77H396.15L143.16 423.66Z" fill="white"/>
<path d="M450.79 267.02C448.85 267.02 447.18 266.34 445.78 264.99C444.38 263.64 443.67 261.99 443.67 260.05V244.36C443.67 243.3 444.01 241.99 444.69 240.44L583.11 79.5101H453.26C448.61 79.5101 446.29 77.2401 446.29 72.6801V57.7201C446.29 53.4601 448.62 51.3301 453.26 51.3301H614.62C616.46 51.3301 618.06 51.9401 619.41 53.1401C620.76 54.3501 621.44 55.9701 621.44 58.0101V73.9901C621.44 75.4401 621 76.9401 620.13 78.4901L483.31 238.84H615.04C616.98 238.84 618.57 239.37 619.83 240.44C621.09 241.51 621.72 243.25 621.72 245.67V260.05C621.72 261.79 621.09 263.39 619.83 264.84C618.57 266.29 616.97 267.02 615.04 267.02H450.77H450.79Z" fill="white"/>
<path d="M801.26 51.3301C805.71 51.3301 807.94 53.6501 807.94 58.3001V72.6801C807.94 74.5201 807.38 76.1201 806.27 77.4701C805.16 78.8301 803.39 79.5001 800.97 79.5001H683.91V139.19H775.99C777.73 139.19 779.23 139.7 780.49 140.72C781.75 141.74 782.38 143.46 782.38 145.88V160.69C782.38 162.43 781.85 163.98 780.78 165.34C779.71 166.7 778.12 167.37 775.99 167.37H683.91V238.83H801.56C806.01 238.83 808.24 241.11 808.24 245.66V260.62C808.24 264.88 806.11 267.01 801.85 267.01H662.13C657.87 267.01 655.74 264.98 655.74 260.91V58.0101C655.74 53.5601 657.87 51.3301 662.13 51.3301H801.27H801.26Z" fill="white"/>
<path d="M1000.53 260.62C1001.79 262.56 1002.27 264.11 1001.98 265.27C1001.69 266.43 1000.33 267.01 997.91 267.01H976.56C974.82 267.01 973.27 266.55 971.91 265.63C970.55 264.71 969.2 263.38 967.84 261.64L914.83 183.35L862.11 261.64C860.85 263.38 859.54 264.71 858.19 265.63C856.83 266.55 855.28 267.01 853.54 267.01H832.04C829.62 267.01 828.26 266.43 827.97 265.27C827.68 264.11 828.21 262.56 829.57 260.62L898.56 159.39C892.46 150.38 886.34 141.36 880.19 132.3C874.04 123.25 868.04 114.41 862.18 105.79C856.32 97.1701 850.66 88.8701 845.19 80.8801C839.72 72.8901 834.61 65.5101 829.87 58.7301C827.93 55.8201 827.33 53.8601 828.05 52.8501C828.77 51.8401 830.64 51.3301 833.64 51.3301H851.65C854.07 51.3301 855.98 51.7901 857.39 52.7101C858.79 53.6301 860.46 55.3001 862.4 57.7201L914.83 134.99L967.55 57.7201C969.49 55.3001 971.18 53.6301 972.63 52.7101C974.08 51.7901 976.02 51.3301 978.44 51.3301H996.3C999.4 51.3301 1001.31 51.8401 1002.04 52.8501C1002.77 53.8601 1002.16 55.8301 1000.22 58.7301C995.48 65.5101 990.37 72.8901 984.9 80.8801C979.43 88.8701 973.74 97.1701 967.83 105.79C961.92 114.41 955.89 123.24 949.75 132.3C943.6 141.35 937.53 150.38 931.52 159.39L1000.51 260.62H1000.53Z" fill="white"/>
<path d="M444.67 307.48C444.67 305.33 445.7 304.25 447.76 304.25H481.17C485.61 304.25 489.72 305.08 493.51 306.74C497.3 308.4 500.58 310.65 503.36 313.5C506.14 316.35 508.31 319.66 509.88 323.45C511.45 327.24 512.23 331.24 512.23 335.45C512.23 339.66 511.46 343.5 509.91 347.22C508.36 350.94 506.21 354.22 503.46 357.07C500.7 359.92 497.45 362.18 493.71 363.86C489.97 365.54 485.9 366.38 481.51 366.38H457.64V401.14C457.64 403.11 456.65 404.1 454.68 404.1H447.62C445.65 404.1 444.66 403.11 444.66 401.14V307.48H444.67ZM499.26 335.31C499.26 332.93 498.79 330.65 497.85 328.45C496.91 326.25 495.62 324.32 493.98 322.63C492.34 320.95 490.43 319.6 488.23 318.6C486.03 317.59 483.68 317.09 481.17 317.09H457.64V353.53H481.17C483.59 353.53 485.9 353.04 488.1 352.05C490.3 351.06 492.22 349.73 493.88 348.05C495.54 346.37 496.85 344.43 497.81 342.23C498.77 340.03 499.26 337.73 499.26 335.31Z" fill="white"/>
<path d="M530.59 307.48C530.59 305.33 531.58 304.25 533.55 304.25H572.34C576.82 304.25 580.99 305.09 584.85 306.77C588.71 308.45 592.07 310.74 594.93 313.63C597.8 316.52 600.05 319.91 601.69 323.78C603.33 327.66 604.14 331.79 604.14 336.18C604.14 339.32 603.7 342.33 602.83 345.22C601.96 348.11 600.73 350.79 599.17 353.25C597.6 355.72 595.72 357.92 593.52 359.87C591.32 361.82 588.88 363.45 586.19 364.74L603.94 401.11V401.98C603.94 403.37 603.11 404.06 601.45 404.06H593.31C591.92 404.06 590.85 403.23 590.08 401.57L573.94 367.68C573.58 367.72 573.19 367.75 572.76 367.75C572.33 367.75 571.73 367.76 570.94 367.78C570.16 367.8 569.11 367.81 567.81 367.81H543.61V401.09C543.61 403.06 542.58 404.05 540.52 404.05H533.53C531.56 404.05 530.57 403.06 530.57 401.09V307.43L530.59 307.48ZM591.23 336.05C591.23 333.59 590.75 331.21 589.79 328.92C588.83 326.63 587.5 324.62 585.82 322.87C584.14 321.12 582.14 319.72 579.84 318.67C577.53 317.62 575.03 317.09 572.34 317.09H543.63V355.01H572.61C575.25 355.01 577.72 354.5 580.01 353.46C582.3 352.43 584.27 351.04 585.93 349.29C587.59 347.54 588.89 345.53 589.83 343.24C590.77 340.95 591.24 338.56 591.24 336.05H591.23Z" fill="white"/>
<path d="M734.58 305.74C734.98 304.75 735.61 304.26 736.46 304.26H745.2C746.32 304.26 747.07 304.47 747.45 304.9C747.83 305.33 748.02 305.85 748.02 306.48V307.35L732.62 344.46L749.02 384.4L780.42 306.75C781.05 305.09 782.24 304.26 783.98 304.26H790.91C792.03 304.26 792.8 304.47 793.23 304.9C793.65 305.33 793.87 305.85 793.87 306.48V307.09L754.67 401.28C754.67 401.28 754.61 401.49 754.5 401.78C754.39 402.07 754.2 402.39 753.93 402.72C753.66 403.06 753.3 403.37 752.85 403.66C752.4 403.95 751.86 404.1 751.24 404.1H746.67C745.55 404.1 744.71 403.81 744.15 403.23C743.59 402.65 743.31 402.11 743.31 401.62L725.96 360.2L708.82 401.28C708.59 402.04 708.2 402.7 707.64 403.26C707.08 403.82 706.44 404.1 705.72 404.1H700.95C700.01 404.1 699.27 403.8 698.73 403.19C698.19 402.58 697.81 402.04 697.59 401.54L658.53 307.35C658.49 307.26 658.43 307.13 658.36 306.95C658.29 306.77 658.26 306.57 658.26 306.34C658.26 304.95 659.13 304.26 660.88 304.26H668.41C669.08 304.26 669.71 304.48 670.29 304.93C670.87 305.38 671.34 306.1 671.7 307.08L703.16 384.4L734.56 305.74H734.58Z" fill="white"/>
<path d="M808.401 307.22C808.401 306.41 808.661 305.72 809.171 305.14C809.681 304.56 810.411 304.27 811.351 304.27H818.341C819.151 304.27 819.861 304.54 820.491 305.08C821.121 305.62 821.431 306.34 821.431 307.23V401.16C821.431 403.13 820.401 404.12 818.341 404.12H811.351C809.381 404.12 808.391 403.13 808.391 401.16V307.23L808.401 307.22Z" fill="white"/>
<path d="M843.23 307.48C843.23 305.33 844.22 304.25 846.19 304.25H884.98C889.46 304.25 893.63 305.09 897.49 306.77C901.35 308.45 904.71 310.74 907.57 313.63C910.44 316.52 912.69 319.91 914.33 323.78C915.97 327.66 916.78 331.79 916.78 336.18C916.78 339.32 916.34 342.33 915.47 345.22C914.6 348.11 913.37 350.79 911.81 353.25C910.24 355.72 908.36 357.92 906.16 359.87C903.96 361.82 901.52 363.45 898.83 364.74L916.58 401.11V401.98C916.58 403.37 915.75 404.06 914.09 404.06H905.95C904.56 404.06 903.49 403.23 902.72 401.57L886.58 367.68C886.22 367.72 885.83 367.75 885.4 367.75C884.97 367.75 884.37 367.76 883.58 367.78C882.8 367.8 881.75 367.81 880.45 367.81H856.25V401.09C856.25 403.06 855.22 404.05 853.16 404.05H846.17C844.2 404.05 843.21 403.06 843.21 401.09V307.43L843.23 307.48ZM903.87 336.05C903.87 333.59 903.39 331.21 902.43 328.92C901.47 326.63 900.14 324.62 898.46 322.87C896.78 321.12 894.78 319.72 892.48 318.67C890.17 317.62 887.67 317.09 884.98 317.09H856.27V355.01H885.25C887.89 355.01 890.36 354.5 892.65 353.46C894.94 352.43 896.91 351.04 898.57 349.29C900.23 347.54 901.53 345.53 902.47 343.24C903.41 340.95 903.88 338.56 903.88 336.05H903.87Z" fill="white"/>
<path d="M1003.04 304.26C1005.1 304.26 1006.13 305.34 1006.13 307.49V314.15C1006.13 315 1005.87 315.74 1005.36 316.37C1004.84 317 1004.03 317.31 1002.91 317.31H948.72V344.94H991.34C992.15 344.94 992.84 345.18 993.43 345.65C994.02 346.12 994.3 346.92 994.3 348.04V354.9C994.3 355.71 994.05 356.42 993.56 357.05C993.06 357.68 992.33 357.99 991.34 357.99H948.72V391.07H1003.18C1005.24 391.07 1006.27 392.12 1006.27 394.23V401.16C1006.27 403.13 1005.28 404.12 1003.31 404.12H938.63C936.66 404.12 935.67 403.18 935.67 401.3V307.38C935.67 305.32 936.66 304.29 938.63 304.29H1003.04V304.26Z" fill="white"/>
<path d="M1057.75 5.60999C1060.94 7.42999 1063.45 9.94 1065.27 13.13C1067.09 16.32 1068 19.86 1068 23.74C1068 27.62 1067.07 31.18 1065.21 34.41C1063.35 37.64 1060.81 40.19 1057.6 42.05C1054.39 43.91 1050.84 44.84 1046.96 44.84C1043.08 44.84 1039.54 43.91 1036.35 42.05C1033.16 40.19 1030.64 37.65 1028.8 34.44C1026.96 31.23 1026.04 27.7 1026.04 23.86C1026.04 20.02 1026.96 16.49 1028.8 13.28C1030.64 10.07 1033.17 7.54001 1036.38 5.67001C1039.59 3.81001 1043.16 2.88 1047.08 2.88C1051 2.88 1054.56 3.78999 1057.75 5.60999ZM1056.23 39.72C1059 38.1 1061.19 35.88 1062.8 33.06C1064.4 30.25 1065.21 27.14 1065.21 23.73C1065.21 20.32 1064.43 17.23 1062.86 14.46C1061.29 11.69 1059.14 9.51001 1056.38 7.92001C1053.63 6.34001 1050.53 5.54001 1047.08 5.54001C1043.63 5.54001 1040.57 6.35001 1037.78 7.98001C1034.99 9.61001 1032.8 11.81 1031.21 14.61C1029.62 17.4 1028.83 20.48 1028.83 23.85C1028.83 27.22 1029.62 30.3 1031.21 33.09C1032.79 35.88 1034.97 38.09 1037.75 39.72C1040.52 41.35 1043.59 42.16 1046.96 42.16C1050.33 42.16 1053.46 41.35 1056.23 39.72ZM1056.41 24.62C1055.54 25.89 1054.31 26.8 1052.73 27.35L1058.14 35.73H1054.04L1049.11 28.12H1042.63V35.73H1038.59V11.96H1048.1C1051.07 11.96 1053.42 12.69 1055.14 14.16C1056.86 15.63 1057.73 17.59 1057.73 20.04C1057.73 21.82 1057.29 23.35 1056.42 24.62H1056.41ZM1052.22 23.55C1053.27 22.72 1053.79 21.55 1053.79 20.04C1053.79 18.53 1053.26 17.38 1052.22 16.56C1051.17 15.75 1049.69 15.34 1047.79 15.34H1042.56V24.79H1047.79C1049.69 24.79 1051.17 24.37 1052.22 23.54V23.55Z" fill="white"/>
</svg>
