<svg width="44" height="44" viewBox="0 0 44 44" fill="none" xmlns="http://www.w3.org/2000/svg">
<path d="M20 31H24C24 32.1 23.1 33 22 33C20.9 33 20 32.1 20 31ZM31 29V30H13V29L15 27V21C15 17.9 17 15.2 20 14.3V14C20 12.9 20.9 12 22 12C23.1 12 24 12.9 24 14V14.3C27 15.2 29 17.9 29 21V27L31 29ZM27 21C27 18.2 24.8 16 22 16C19.2 16 17 18.2 17 21V28H27V21Z" fill="#232536"/>
<path d="M31.0556 16.1111C32.7431 16.1111 34.1111 14.7431 34.1111 13.0556C34.1111 11.368 32.7431 10 31.0556 10C29.368 10 28 11.368 28 13.0556C28 14.7431 29.368 16.1111 31.0556 16.1111Z" fill="#EB5757"/>
</svg>
