<svg width="49" height="48" viewBox="0 0 49 48" fill="none" xmlns="http://www.w3.org/2000/svg">
<rect x="0.75" width="48" height="48" rx="24" fill="#F0E1FF"/>
<g clip-path="url(#clip0_918_20461)">
<path d="M35.837 17.5466L25.239 12.1767L25.2346 12.1745C24.7627 11.9396 24.202 11.9448 23.7345 12.1886L19.1891 14.6009C19.1522 14.6166 19.1167 14.6356 19.0827 14.6574L13.6357 17.5483C13.0894 17.8344 12.75 18.3949 12.75 19.0118V28.9906C12.75 29.6075 13.0894 30.168 13.6357 30.4541L23.73 35.8115L23.7346 35.8139C23.973 35.9382 24.2357 36.0005 24.4985 36.0005C24.7509 36.0005 25.0035 35.9431 25.2346 35.828L35.837 30.4559C36.4002 30.1742 36.75 29.6083 36.75 28.9784V19.0241C36.75 18.3941 36.4002 17.8282 35.837 17.5466ZM24.3861 13.4342C24.455 13.3988 24.5372 13.3981 24.6067 13.4322L34.5268 18.4586L30.666 20.3807L20.9676 15.2485L24.3861 13.4342ZM23.7855 34.2495L14.2927 29.2113L14.2881 29.2089C14.2065 29.1663 14.1557 29.0827 14.1557 28.9906V19.6461L23.7855 24.6676V34.2495ZM24.4958 23.4526L14.919 18.4588L19.467 16.045L29.1174 21.1517L24.4958 23.4526ZM35.3442 28.9783C35.3442 29.0724 35.2919 29.1569 35.2077 29.1988L25.1913 34.274V24.6766L29.8031 22.3806V24.7879C29.8031 25.176 30.1178 25.4908 30.506 25.4908C30.8942 25.4908 31.2089 25.176 31.2089 24.7879V21.6807L35.3442 19.622V28.9783Z" fill="#BF83FF"/>
</g>
<defs>
<clipPath id="clip0_918_20461">
<rect width="24" height="24" fill="white" transform="translate(12.75 12)"/>
</clipPath>
</defs>
</svg>
