<svg width="24" height="24" viewBox="0 0 24 24" fill="none" xmlns="http://www.w3.org/2000/svg">
<path d="M15 16H18C18.2833 16 18.5207 15.904 18.712 15.712C18.904 15.5207 19 15.2833 19 15V9C19 8.71667 18.904 8.479 18.712 8.287C18.5207 8.09567 18.2833 8 18 8H15C14.7167 8 14.4793 8.09567 14.288 8.287C14.096 8.479 14 8.71667 14 9V15C14 15.2833 14.096 15.5207 14.288 15.712C14.4793 15.904 14.7167 16 15 16ZM16 14V10H17V14H16ZM9 16H12C12.2833 16 12.521 15.904 12.713 15.712C12.9043 15.5207 13 15.2833 13 15V9C13 8.71667 12.9043 8.479 12.713 8.287C12.521 8.09567 12.2833 8 12 8H9C8.71667 8 8.47933 8.09567 8.288 8.287C8.096 8.479 8 8.71667 8 9V15C8 15.2833 8.096 15.5207 8.288 15.712C8.47933 15.904 8.71667 16 9 16ZM10 14V10H11V14H10ZM6 16C6.28333 16 6.521 15.904 6.713 15.712C6.90433 15.5207 7 15.2833 7 15V9C7 8.71667 6.90433 8.479 6.713 8.287C6.521 8.09567 6.28333 8 6 8C5.71667 8 5.479 8.09567 5.287 8.287C5.09567 8.479 5 8.71667 5 9V15C5 15.2833 5.09567 15.5207 5.287 15.712C5.479 15.904 5.71667 16 6 16ZM4 20C3.45 20 2.97933 19.8043 2.588 19.413C2.196 19.021 2 18.55 2 18V6C2 5.45 2.196 4.97933 2.588 4.588C2.97933 4.196 3.45 4 4 4H20C20.55 4 21.021 4.196 21.413 4.588C21.8043 4.97933 22 5.45 22 6V18C22 18.55 21.8043 19.021 21.413 19.413C21.021 19.8043 20.55 20 20 20H4Z" fill="#8B8EA5"/>
</svg>
