<svg width="24" height="24" viewBox="0 0 24 24" fill="none" xmlns="http://www.w3.org/2000/svg">
<path d="M9.53731 21L9.17911 18.12C8.98508 18.045 8.80239 17.955 8.63105 17.85C8.45911 17.745 8.29105 17.6325 8.12687 17.5125L5.46269 18.6375L3 14.3625L5.30597 12.6075C5.29104 12.5025 5.28358 12.4011 5.28358 12.3033V11.6958C5.28358 11.5986 5.29104 11.4975 5.30597 11.3925L3 9.6375L5.46269 5.3625L8.12687 6.4875C8.29105 6.3675 8.46269 6.255 8.64179 6.15C8.8209 6.045 9 5.955 9.17911 5.88L9.53731 3H14.4627L14.8209 5.88C15.0149 5.955 15.1979 6.045 15.3699 6.15C15.5412 6.255 15.709 6.3675 15.8731 6.4875L18.5373 5.3625L21 9.6375L18.694 11.3925C18.709 11.4975 18.7164 11.5986 18.7164 11.6958V12.3033C18.7164 12.4011 18.7015 12.5025 18.6716 12.6075L20.9776 14.3625L18.5149 18.6375L15.8731 17.5125C15.709 17.6325 15.5373 17.745 15.3582 17.85C15.1791 17.955 15 18.045 14.8209 18.12L14.4627 21H9.53731ZM12.0448 15.15C12.9104 15.15 13.6493 14.8425 14.2612 14.2275C14.8731 13.6125 15.1791 12.87 15.1791 12C15.1791 11.13 14.8731 10.3875 14.2612 9.7725C13.6493 9.1575 12.9104 8.85 12.0448 8.85C11.1642 8.85 10.4215 9.1575 9.81672 9.7725C9.21254 10.3875 8.91045 11.13 8.91045 12C8.91045 12.87 9.21254 13.6125 9.81672 14.2275C10.4215 14.8425 11.1642 15.15 12.0448 15.15Z" fill="#C2C9D1"/>
<path d="M9.53731 21L9.17911 18.12C8.98508 18.045 8.80239 17.955 8.63105 17.85C8.45911 17.745 8.29105 17.6325 8.12687 17.5125L5.46269 18.6375L3 14.3625L5.30597 12.6075C5.29104 12.5025 5.28358 12.4011 5.28358 12.3033V11.6958C5.28358 11.5986 5.29104 11.4975 5.30597 11.3925L3 9.6375L5.46269 5.3625L8.12687 6.4875C8.29105 6.3675 8.46269 6.255 8.64179 6.15C8.8209 6.045 9 5.955 9.17911 5.88L9.53731 3H14.4627L14.8209 5.88C15.0149 5.955 15.1979 6.045 15.3699 6.15C15.5412 6.255 15.709 6.3675 15.8731 6.4875L18.5373 5.3625L21 9.6375L18.694 11.3925C18.709 11.4975 18.7164 11.5986 18.7164 11.6958V12.3033C18.7164 12.4011 18.7015 12.5025 18.6716 12.6075L20.9776 14.3625L18.5149 18.6375L15.8731 17.5125C15.709 17.6325 15.5373 17.745 15.3582 17.85C15.1791 17.955 15 18.045 14.8209 18.12L14.4627 21H9.53731ZM12.0448 15.15C12.9104 15.15 13.6493 14.8425 14.2612 14.2275C14.8731 13.6125 15.1791 12.87 15.1791 12C15.1791 11.13 14.8731 10.3875 14.2612 9.7725C13.6493 9.1575 12.9104 8.85 12.0448 8.85C11.1642 8.85 10.4215 9.1575 9.81672 9.7725C9.21254 10.3875 8.91045 11.13 8.91045 12C8.91045 12.87 9.21254 13.6125 9.81672 14.2275C10.4215 14.8425 11.1642 15.15 12.0448 15.15Z" fill="black" fill-opacity="0.5"/>
</svg>
